<?xml version="1.0" encoding="UTF-8" standalone="no"?>
<!-- Created with Inkscape (http://www.inkscape.org/) -->

<svg
   version="1.1"
   id="svg2"
   xml:space="preserve"
   width="500"
   height="500"
   viewBox="0 0 500 500"
   sodipodi:docname="france-bleu-gascogne.svg"
   inkscape:version="1.1.1 (1:1.1+202109281954+c3084ef5ed)"
   inkscape:export-filename="/home/gub/OneDrive/Logo Radio France 2021/logos Radio France + chaines 2021/France Bleu/locales/france-bleu-gascogne.png"
   inkscape:export-xdpi="192"
   inkscape:export-ydpi="192"
   xmlns:inkscape="http://www.inkscape.org/namespaces/inkscape"
   xmlns:sodipodi="http://sodipodi.sourceforge.net/DTD/sodipodi-0.dtd"
   xmlns="http://www.w3.org/2000/svg"
   xmlns:svg="http://www.w3.org/2000/svg"><defs
     id="defs6" /><sodipodi:namedview
     id="namedview4"
     pagecolor="#ffffff"
     bordercolor="#666666"
     borderopacity="1.0"
     inkscape:pageshadow="2"
     inkscape:pageopacity="0.0"
     inkscape:pagecheckerboard="0"
     showgrid="false"
     inkscape:snap-page="true"
     inkscape:zoom="0.70575489"
     inkscape:cx="337.22756"
     inkscape:cy="279.8422"
     inkscape:window-width="2560"
     inkscape:window-height="1376"
     inkscape:window-x="0"
     inkscape:window-y="27"
     inkscape:window-maximized="1"
     inkscape:current-layer="g8" /><g
     id="g8"
     inkscape:groupmode="layer"
     inkscape:label="ink_ext_XXXXXX"
     transform="matrix(1.3333333,0,0,-1.3333333,-5.2083334e-4,318.45223)"><path
       d="M 375.0004,-136.16083 H 3.4000002e-4 V 238.83918 H 375.0004 Z"
       style="fill:#0077d7;fill-opacity:1;fill-rule:nonzero;stroke:none;stroke-width:1.57009"
       id="path10" /><path
       id="path46-3"
       style="fill:#bfddf5;fill-opacity:1;fill-rule:nonzero;stroke:none;stroke-width:1.57009"
       d="m 311.7696,138.02064 c -2.1291,-0.75364 -4.4324,-1.16815 -6.8393,-1.16815 -10.7975,0 -19.5508,8.3042 -19.5508,18.54903 0,2.85599 0.6814,5.56283 1.8983,7.97919 h -23.99885 c -0.54639,-2.57965 -0.83528,-5.24723 -0.83528,-7.97919 0,-22.26229 19.02162,-40.31046 42.48663,-40.31046 2.3284,0 4.6129,0.18056 6.8393,0.52284 z m -6.8392,35.92975 c 10.7975,0 19.5508,-8.3042 19.5508,-18.54903 0,-3.14645 -0.8275,-6.10921 -2.2845,-8.70457 H 346.42 c 0.65,2.80418 0.997,5.71512 0.997,8.70457 0,17.16892 -11.314,31.82884 -27.2536,37.63817 v 18.21617 h -21.036 v -38.13588 c 1.8338,0.54011 3.7823,0.83057 5.803,0.83057" /><path
       id="path52"
       style="fill:#ffffff;fill-opacity:1;fill-rule:nonzero;stroke:none;stroke-width:0.15701"
       d="m 209.88473,58.705819 v 22.110177 h -4.09796 v 5.823508 h 4.09796 v 2.428948 c 0,5.768555 2.85759,9.54308 8.89777,9.54308 1.24038,0 2.85759,-0.108337 3.55785,-0.323441 v -6.093566 c -0.43021,0.05495 -1.02213,0.106767 -1.6172,0.106767 -2.26409,0 -3.12608,-0.807033 -3.12608,-3.829479 v -1.832309 h 4.85162 v -5.823508 h -4.85162 V 58.705819 h -7.71234 m 47.60549,11.970458 c 0,-3.666188 -0.59349,-7.117272 -5.50006,-7.117272 -2.8042,0 -4.04459,1.725542 -4.04459,3.721141 0,2.695866 1.72555,4.15135 6.41701,4.15135 h 3.12764 z m 7.55063,-4.744848 v 11.70354 c 0,6.687065 -4.09954,9.598034 -11.54025,9.652987 -7.66367,0 -10.92006,-3.2297 -11.77263,-7.487816 l 7.13454,-1.464905 c 0.32345,2.048983 1.07866,3.3977 4.31307,3.3977 3.61438,0 4.31464,-1.942216 4.31464,-3.936245 v -1.672159 h -3.98962 c -8.19751,0 -13.26737,-2.965923 -13.26737,-9.329546 0,-4.31464 2.80421,-8.737618 9.54465,-8.737618 4.9631,0 6.85036,1.833879 7.87407,3.397701 0,-0.700265 0.16172,-2.210704 0.37839,-2.750819 h 7.38733 c -0.16172,0.648452 -0.37682,4.531315 -0.37682,7.22718 m 74.61124,9.814707 c -0.0549,3.235981 -1.34872,5.986799 -5.12324,5.986799 -3.66776,0 -5.1782,-2.535714 -5.50164,-5.986799 z m -10.7866,-4.744848 c 0,-3.506038 1.7805,-6.902168 5.60841,-6.902168 3.23598,0 4.15292,1.293764 4.90813,2.964352 h 7.71235 c -0.9719,-3.39613 -4.04459,-9.006105 -12.7822,-9.006105 -9.22121,0 -13.21241,6.850355 -13.21241,14.184302 0,8.789431 4.47636,15.046287 13.48246,15.046287 9.54622,0 12.83559,-6.957122 12.83559,-13.914244 0,-0.970323 0,-1.563821 -0.10834,-2.372424 h -18.44399 m -8.40318,-3.290934 c -0.91694,-4.636511 -4.20631,-9.652987 -12.51058,-9.652987 -8.68423,0 -13.15902,5.986799 -13.15902,14.399406 0,8.250886 5.0149,14.831183 13.53585,14.831183 9.38293,0 12.02541,-6.795401 12.13375,-9.923044 h -7.49567 c -0.48516,2.265657 -1.7805,3.827908 -4.7998,3.827908 -3.55942,0 -5.55502,-3.072689 -5.55502,-8.46599 0,-5.986799 2.15732,-8.682664 5.50006,-8.682664 2.69744,0 4.09954,1.563822 4.79981,3.666188 h 7.55062 m -52.31109,11.865261 c 0,2.372424 0,4.961523 -0.0534,7.065459 h 7.49567 c 0.16172,-0.755219 0.27006,-2.697435 0.32344,-3.559421 0.91694,1.725542 3.1826,4.206303 8.08917,4.206303 5.60997,0 9.22278,-3.829479 9.22278,-10.839984 V 58.704249 h -7.71234 v 16.880167 c 0,3.182597 -1.02371,5.446684 -4.47637,5.446684 -3.28936,0 -5.12324,-1.833879 -5.12324,-6.793832 V 58.704249 h -7.76572 V 79.575615 M 224.52436,79.03707 c 0,2.804202 0,5.23001 -0.0549,7.604004 h 7.604 c 0.10834,-0.648452 0.21668,-3.399271 0.21668,-4.908139 1.24038,3.181027 4.2063,5.500068 8.95115,5.555021 v -7.3889 c -5.60841,0.161721 -8.95115,-1.347147 -8.95115,-9.006105 V 58.704249 h -7.76573 V 79.03707 M 347.23254,-26.082515 c 0,-9.070479 0,-19.254632 0.18528,-27.768824 h -25.91925 c -0.36897,2.591925 -0.55424,7.776401 -0.73951,11.106588 -5.73873,-9.627866 -14.06969,-13.328596 -26.47349,-13.328596 -19.43787,0 -31.84167,11.848147 -31.84167,35.543812 v 62.573432 h 26.47349 v -57.205096 c 0,-10.552813 3.33175,-19.254004 14.8092,-19.254004 12.03326,0 17.03247,6.481067 17.03247,25.3632706 V 42.043897 h 26.47348 V -26.082515 M 227.90793,4.6472076 c -0.18527,11.1084714 -4.62709,20.5494954 -17.58671,20.5494954 -12.58908,0 -17.77198,-8.701349 -18.88205,-20.5494954 z M 190.88336,-11.644328 c 0,-12.031534 6.10926,-23.695665 19.25259,-23.695665 11.10847,0 14.25495,4.443388 16.84719,10.180384 h 26.47192 c -3.33175,-11.659734 -13.88441,-30.913738 -43.87493,-30.913738 -31.65482,0 -45.35396,23.512277 -45.35396,48.6890199 0,30.1740631 15.36501,51.6499181 46.28032,51.6499181 32.76646,0 44.05863,-23.882978 44.05863,-47.7626595 0,-3.3333266 0,-5.3677077 -0.36897,-8.1472595 H 190.88336 M 156.34692,81.288596 V -53.851339 H 128.76353 V 81.288596 h 27.58339 M 73.67807,22.975008 c -15.179746,0 -20.547454,-9.809997 -20.547454,-29.434388 0,-16.108304 4.812677,-28.510226 20.178166,-28.510226 13.513397,0 20.732726,12.031535 20.732726,30.1772033 0,16.1064207 -6.108639,27.7674107 -20.363438,27.7674107 z M 27.767816,81.288596 H 54.426578 V 31.860215 c 3.886003,6.109267 11.847519,12.405376 27.397024,12.405376 26.102318,0 39.061158,-21.661127 39.061158,-48.5035907 0,-27.3982803 -14.06953,-51.8353473 -41.651826,-51.8353473 -14.254799,0 -20.549338,4.25953 -25.177528,11.293744 0,-3.149468 -0.556287,-6.66681 -1.11069,-9.071736 H 27.582073 c 0.185743,10.36707 0.185743,20.919725 0.185743,31.283655 V 81.288596 M 339.65052,-89.318373 c -0.0565,3.240691 -1.34872,5.989625 -5.12324,5.989625 -3.66933,0 -5.1782,-2.537285 -5.50478,-5.989625 z m -10.78974,-4.743435 c 0,-3.507608 1.7805,-6.903582 5.61155,-6.903582 3.23441,0 4.15292,1.290467 4.90499,2.965452 h 7.71706 c -0.97347,-3.401002 -4.04773,-9.007362 -12.78377,-9.007362 -9.22592,0 -13.21712,6.84847 -13.21712,14.185559 0,8.792571 4.47636,15.044717 13.4856,15.044717 9.54779,0 12.83716,-6.953825 12.83716,-13.913773 0,-0.969067 0,-1.563979 -0.1052,-2.371011 h -18.45027 m -35.31159,8.57417 c 0,2.372267 0,4.961836 -0.055,7.065459 h 7.49881 c 0.16172,-0.751922 0.26849,-2.695551 0.32344,-3.559107 0.9138,1.727112 3.17946,4.204262 8.09074,4.204262 5.60683,0 9.22121,-3.824611 9.22121,-10.839827 v -17.743879 h -7.71234 v 16.882207 c 0,3.182597 -1.02528,5.449353 -4.47637,5.449353 -3.29093,0 -5.12324,-1.836863 -5.12324,-6.798071 v -15.533489 h -7.76729 v 20.873092 m -17.21613,-14.292795 c 4.64122,0 5.87846,3.179456 5.87846,7.872491 0,4.693192 -0.80703,7.929015 -5.71674,7.929015 -3.34275,0 -5.9868,-2.588784 -5.9868,-8.195775 0,-4.799802 2.42738,-7.605731 5.82508,-7.605731 z m 13.21712,-3.183857 c 0,-8.95256 -3.29094,-14.61592 -13.864,-14.61592 -10.19468,0 -12.18713,5.66336 -12.46033,8.84705 h 7.8772 c 0.54011,-1.94174 1.93908,-3.23582 4.90657,-3.23582 5.01647,0 5.98994,3.07458 5.98994,8.51969 v 1.34683 c -1.45863,-2.4258 -3.77924,-3.9364 -7.8772,-3.9364 -7.33395,0 -11.54182,6.041909 -11.54182,13.541031 0,8.736047 5.23315,14.720805 12.18713,14.720805 4.80451,0 6.79854,-2.2655 7.23189,-3.557851 0.0502,0.756946 0.26691,2.427535 0.32344,2.912696 h 7.28213 c 0,-2.534302 -0.055,-5.339603 -0.055,-8.035782 v -16.506329 m -47.86137,10.573071 c 0,-5.394714 2.32218,-8.574171 6.04175,-8.574171 3.82948,0 5.93499,3.179457 5.93499,8.517804 0,5.829632 -2.16046,8.578566 -6.04176,8.578566 -3.56256,0 -5.93498,-2.644052 -5.93498,-8.522199 z m 19.79427,0.05464 c 0,-8.468821 -5.06671,-14.670721 -13.91424,-14.670721 -8.62928,0 -13.70071,6.2019 -13.70071,14.509472 0,8.628809 5.23315,14.720805 14.0791,14.720805 8.19594,0 13.53585,-5.823351 13.53585,-14.559556 m -28.19746,-5.01632 c -0.91851,-4.637921 -4.20944,-9.654401 -12.51685,-9.654401 -8.68109,0 -13.15746,5.98492 -13.15746,14.397836 0,8.25701 5.01648,14.83244 13.53585,14.83244 9.38764,0 12.0317,-6.79179 12.13846,-9.921004 h -7.50037 c -0.4836,2.265658 -1.77579,3.829008 -4.79981,3.829008 -3.55785,0 -5.55502,-3.077086 -5.55502,-8.46756 0,-5.989782 2.15889,-8.6858 5.50478,-8.6858 2.69587,0 4.09797,1.565702 4.7998,3.669481 h 7.55062 m -43.4824,-0.594911 c 0.59507,-2.26566 2.42738,-3.50274 5.28496,-3.50274 2.86073,0 3.886,1.02371 3.886,2.750818 0,1.775471 -1.18699,2.47715 -5.17819,3.451084 -9.11445,2.265657 -10.57307,5.067818 -10.57307,9.004221 0,4.102519 2.86073,8.467403 11.27333,8.467403 8.46913,0 11.38167,-4.63604 11.59835,-8.412293 h -7.33709 c -0.26849,1.024963 -0.97032,2.967336 -4.58313,2.967336 -2.53885,0 -3.40084,-1.130473 -3.40084,-2.372424 0,-1.401944 0.86199,-2.048983 5.39487,-3.129056 9.33112,-2.15889 10.67826,-5.338347 10.67826,-9.437883 0,-4.641536 -3.55785,-8.845956 -12.02698,-8.845956 -8.52408,0 -11.97516,4.09765 -12.62205,9.05949 h 7.60558 m -17.22559,4.31464 h -3.12921 c -4.69304,0 -6.41858,-1.454229 -6.41858,-4.152763 0,-1.9945 1.24195,-3.721617 4.04301,-3.721617 4.90971,0 5.50478,3.452973 5.50478,7.122458 z m 7.55062,-5.500224 c 0,-2.695556 0.21667,-6.581556 0.37839,-7.227336 h -7.39361 c -0.21196,0.53902 -0.37368,2.04898 -0.37368,2.75129 -1.02528,-1.56586 -2.91254,-3.39786 -7.8772,-3.39786 -6.74202,0 -9.54418,4.42157 -9.54418,8.736206 0,6.363152 5.06782,9.331116 13.26846,9.331116 h 3.9912 v 1.66996 c 0,1.998897 -0.70184,3.94127 -4.31464,3.94127 -3.23912,0 -3.9912,-1.351701 -4.31464,-3.400841 h -7.33819 c 0.3784,4.96168 3.45219,8.952565 11.97627,8.952565 7.44385,-0.05024 11.54182,-2.962311 11.54182,-9.654243 v -11.702127 m -40.42495,-0.647039 c 4.63809,0 5.87941,3.179456 5.87941,7.872491 0,4.693192 -0.81206,7.929015 -5.718,7.929015 -3.34573,0 -5.98978,-2.588784 -5.98978,-8.195775 0,-4.799802 2.42753,-7.605731 5.82837,-7.605731 z m 13.21288,-3.183857 c 0,-8.95256 -3.29046,-14.61592 -13.86353,-14.61592 -10.19404,0 -12.18791,5.66336 -12.45593,8.84705 h 7.87312 c 0.5398,-1.94174 1.943,-3.23582 4.9061,-3.23582 5.01632,0 5.98962,3.07458 5.98962,8.51969 v 1.34683 c -1.45784,-2.4258 -3.77499,-3.9364 -7.87688,-3.9364 -7.33348,0 -11.54214,6.041909 -11.54214,13.541031 0,8.736047 5.23284,14.720805 12.19231,14.720805 4.79981,0 6.79305,-2.2655 7.22671,-3.557851 0.0515,0.756946 0.26802,2.427535 0.32329,2.912696 h 7.28244 c 0,-2.534302 -0.0551,-5.339603 -0.0551,-8.035782 v -16.506329" /></g></svg>
